<?xml version="1.0" standalone="no"?>
<!DOCTYPE svg PUBLIC "-//W3C//DTD SVG 20010904//EN"
 "http://www.w3.org/TR/2001/REC-SVG-20010904/DTD/svg10.dtd">
<svg version="1.0" xmlns="http://www.w3.org/2000/svg"
 width="300.000000pt" height="300.000000pt" viewBox="0 0 300.000000 300.000000"
 preserveAspectRatio="xMidYMid meet">
<metadata>
Created by potrace 1.10, written by Peter Selinger 2001-2011
</metadata>
<g transform="translate(0.000000,300.000000) scale(0.100000,-0.100000)"
fill="#000000" stroke="none">
<path d="M1230 2970 c-279 -72 -520 -295 -615 -567 l-24 -67 -68 -24 c-215
-78 -361 -264 -380 -487 -17 -206 103 -403 313 -512 124 -65 204 -84 379 -90
l150 -6 0 47 0 46 -87 0 c-240 0 -425 66 -547 195 -127 134 -150 308 -66 481
58 120 193 228 310 249 63 12 72 20 95 97 41 136 106 245 203 340 103 101 227
173 365 209 107 29 287 29 395 0 202 -53 379 -189 489 -373 33 -56 45 -68 67
-68 57 -1 170 -32 241 -66 133 -65 241 -197 286 -349 24 -80 24 -220 0 -300
-60 -204 -225 -357 -431 -400 -46 -10 -131 -15 -250 -15 l-180 0 -1 -45 -1
-45 202 0 c168 0 215 3 279 20 240 61 418 238 481 475 9 36 16 101 16 160 0
238 -112 438 -317 563 -58 36 -178 78 -250 87 -45 6 -53 11 -67 39 -26 55
-132 179 -200 233 -138 113 -340 193 -481 193 -91 -1 -72 -12 65 -38 245 -47
424 -162 567 -365 59 -85 65 -89 162 -107 222 -40 418 -223 475 -445 19 -77
20 -243 0 -319 -60 -229 -243 -402 -478 -450 -107 -22 -417 -23 -417 -1 0 13
26 15 178 15 122 0 197 5 241 15 201 48 383 227 436 431 17 67 20 196 5 275
-5 30 -29 92 -52 139 -77 158 -233 280 -403 315 -38 8 -81 15 -95 15 -20 0
-32 12 -60 63 -43 77 -204 240 -282 286 -70 40 -154 75 -239 98 -86 23 -280
23 -368 0 -295 -79 -508 -277 -605 -564 l-23 -67 -74 -26 c-105 -38 -136 -55
-201 -118 -116 -111 -162 -219 -156 -372 3 -87 6 -103 40 -172 68 -136 211
-246 383 -293 33 -9 117 -19 188 -22 97 -4 127 -9 127 -19 0 -11 -19 -14 -79
-14 -237 0 -431 71 -563 207 -193 198 -182 497 26 706 45 44 190 127 225 127
30 1 58 34 76 90 57 177 181 336 346 443 106 69 186 100 324 128 61 12 117 25
125 30 30 17 -125 8 -200 -11z"/>
<path d="M1698 2043 c-44 -51 -758 -1136 -758 -1152 0 -11 7 -27 16 -36 14
-14 49 -16 295 -13 154 2 279 3 279 3 0 0 -58 -176 -130 -390 -71 -214 -130
-400 -130 -412 0 -26 28 -44 56 -37 10 3 62 68 114 145 52 76 213 312 358 524
144 212 262 393 262 404 0 41 -17 43 -311 41 -267 -1 -281 0 -274 17 31 78
305 870 305 883 0 39 -55 54 -82 23z m48 -26 c2 -7 -52 -175 -121 -372 -69
-198 -138 -395 -153 -437 -41 -118 -53 -113 239 -115 134 -2 261 -3 282 -3 23
0 37 -5 37 -12 -1 -7 -73 -119 -161 -248 -183 -267 -398 -584 -485 -712 -58
-86 -84 -107 -84 -68 0 11 56 189 125 395 69 207 125 382 125 390 0 7 -10 21
-22 30 -20 13 -61 15 -273 15 -137 0 -258 0 -269 0 -13 0 -17 5 -14 18 8 28
747 1132 759 1132 5 0 12 -6 15 -13z"/>
<path d="M1300 1329 c-133 -199 -244 -368 -247 -376 -3 -7 3 -23 12 -33 17
-19 32 -20 282 -20 144 0 263 -4 263 -8 0 -4 -29 -95 -65 -202 -94 -279 -106
-325 -91 -345 11 -15 13 -15 33 2 11 10 113 153 224 318 265 389 242 351 229
375 -10 19 -21 20 -276 20 -211 0 -266 3 -270 13 -3 8 38 137 91 287 99 285
110 330 75 330 -14 0 -80 -91 -260 -361z m254 306 c-27 -67 -194 -547 -194
-561 0 -7 7 -20 16 -28 13 -14 53 -16 286 -16 257 0 270 -1 256 -17 -16 -18
-305 -440 -401 -585 -28 -42 -52 -76 -53 -75 -1 1 38 121 87 267 55 163 88
274 84 287 -3 13 -15 25 -28 28 -12 3 -138 4 -280 3 -141 -2 -256 -1 -255 2
11 20 494 738 496 736 1 -2 -5 -20 -14 -41z"/>
<path d="M1690 1265 l0 -45 45 0 45 0 0 45 0 45 -45 0 -45 0 0 -45z m60 0 c0
-8 -7 -15 -15 -15 -8 0 -15 7 -15 15 0 8 7 15 15 15 8 0 15 -7 15 -15z"/>
</g>
</svg>
